<svg width="16" height="16" viewBox="0 0 16 16" fill="none" xmlns="http://www.w3.org/2000/svg">
<path d="M7.99997 1.59998C4.46558 1.59998 1.59998 4.46558 1.59998 7.99997C1.59998 11.5344 4.46558 14.4 7.99997 14.4C11.5344 14.4 14.4 11.5344 14.4 7.99997C14.4 4.46558 11.5344 1.59998 7.99997 1.59998ZM8.53331 8.53331H4.26398C3.97064 8.53331 3.73331 8.29597 3.73331 8.00264V7.99677C3.73331 7.70397 3.97064 7.46664 4.26398 7.46664H7.46664V3.19731C7.46664 2.90398 7.70397 2.66664 7.99731 2.66664H8.00317C8.29597 2.66664 8.53331 2.90398 8.53331 3.19731V8.53331Z" fill="#4F433F"/>
</svg>
