<svg width="16" height="16" viewBox="0 0 16 16" fill="none" xmlns="http://www.w3.org/2000/svg">
<path d="M7.99997 1.06665C4.75997 1.06665 2.1333 3.69332 2.1333 6.93332C2.1333 10.7914 5.9477 12.6384 6.42557 13.0682C6.91357 13.5072 7.31677 14.4912 7.47943 15.049C7.55837 15.32 7.78023 15.457 7.99997 15.4629C8.22023 15.4565 8.44157 15.3194 8.5205 15.049C8.68317 14.4912 9.08637 13.5077 9.57437 13.0682C10.0522 12.6384 13.8666 10.7914 13.8666 6.93332C13.8666 3.69332 11.24 1.06665 7.99997 1.06665ZM7.99997 8.53332C7.11623 8.53332 6.39997 7.81705 6.39997 6.93332C6.39997 6.04958 7.11623 5.33332 7.99997 5.33332C8.8837 5.33332 9.59997 6.04958 9.59997 6.93332C9.59997 7.81705 8.8837 8.53332 7.99997 8.53332Z" fill="#4F433F"/>
</svg>
