<svg width="16" height="16" viewBox="0 0 16 16" fill="none" xmlns="http://www.w3.org/2000/svg">
<path d="M15.7031 15.7028C15.5052 15.9009 15.2682 16 14.9922 16C14.7161 16 14.4792 15.9009 14.2812 15.7028L11.1875 12.6061C9.9375 13.534 8.54167 13.998 7 13.998C6.05208 13.998 5.14583 13.813 4.28125 13.4428C3.41667 13.0727 2.67188 12.5748 2.04688 11.9492C1.42188 11.3236 0.924479 10.5806 0.554688 9.72043C0.184896 8.86022 0 7.95308 0 6.99902C0 6.04497 0.184896 5.13522 0.554688 4.26979C0.924479 3.40437 1.42188 2.66145 2.04688 2.04106C2.67188 1.42066 3.41667 0.925383 4.28125 0.55523C5.14583 0.185077 6.05208 0 7 0C7.94792 0 8.85417 0.185077 9.71875 0.55523C10.5833 0.925383 11.3281 1.42066 11.9531 2.04106C12.5781 2.66145 13.0755 3.40437 13.4453 4.26979C13.8151 5.13522 14 6.04236 14 6.9912C14 8.5448 13.5365 9.942 12.6094 11.1828L15.7031 14.2796C15.901 14.4777 16 14.7149 16 14.9912C16 15.2675 15.901 15.5047 15.7031 15.7028ZM7 2.00196C6.09375 2.00196 5.25781 2.22353 4.49219 2.66667C3.72656 3.10981 3.11979 3.71717 2.67188 4.48876C2.22396 5.26035 2 6.0971 2 6.99902C2 7.90094 2.22396 8.7377 2.67188 9.50929C3.11979 10.2809 3.72656 10.8882 4.49219 11.3314C5.25781 11.7745 6.09375 11.9961 7 11.9961C7.90625 11.9961 8.74219 11.7745 9.50781 11.3314C10.2734 10.8882 10.8802 10.2809 11.3281 9.50929C11.776 8.7377 12 7.90094 12 6.99902C12 6.0971 11.776 5.26035 11.3281 4.48876C10.8802 3.71717 10.2734 3.10981 9.50781 2.66667C8.74219 2.22353 7.90625 2.00196 7 2.00196Z" fill="#4F433F"/>
</svg>
