<svg width="313" height="45" viewBox="0 0 313 45" fill="none" xmlns="http://www.w3.org/2000/svg">
<path d="M18.932 27.944H19.676C20.556 27.944 20.996 27.632 20.996 27.008V14.192C20.996 13.568 20.556 13.256 19.676 13.256H18.932V12.2H27.524V13.256H26.78C25.9 13.256 25.46 13.568 25.46 14.192V26.264C25.46 27.096 25.932 27.512 26.876 27.512H31.004C31.724 27.512 32.284 27.112 32.684 26.312C33.084 25.512 33.356 24.696 33.5 23.864H34.652L34.148 29H18.932V27.944Z" fill="#4F433F"/>
<path d="M39.1966 29.24C38.1406 29.24 37.2606 29.024 36.5566 28.592C35.8686 28.144 35.5246 27.504 35.5246 26.672C35.5246 25.424 36.1646 24.44 37.4446 23.72C38.7246 22.984 40.6526 22.44 43.2286 22.088V21.2C43.2286 20.464 43.0206 19.92 42.6046 19.568C42.1886 19.2 41.6046 19.016 40.8526 19.016C40.4686 19.016 40.1166 19.072 39.7966 19.184C39.4926 19.28 39.2446 19.408 39.0526 19.568C38.8766 19.728 38.7886 19.872 38.7886 20C38.7886 20.08 38.8126 20.216 38.8606 20.408C38.9086 20.584 38.9326 20.72 38.9326 20.816C38.9326 21.12 38.8126 21.384 38.5726 21.608C38.3486 21.832 38.0046 21.944 37.5406 21.944C37.1406 21.944 36.7806 21.8 36.4606 21.512C36.1566 21.208 36.0046 20.8 36.0046 20.288C36.0046 19.408 36.5086 18.72 37.5166 18.224C38.5406 17.728 39.9566 17.48 41.7646 17.48C42.9006 17.48 43.9006 17.64 44.7646 17.96C45.6446 18.264 46.3246 18.696 46.8046 19.256C47.2846 19.8 47.5246 20.44 47.5246 21.176V27.008C47.5246 27.312 47.5806 27.528 47.6926 27.656C47.8046 27.784 47.9726 27.848 48.1966 27.848C48.4686 27.848 48.7966 27.784 49.1806 27.656V28.376C48.8286 28.648 48.3806 28.856 47.8366 29C47.3086 29.16 46.7566 29.24 46.1806 29.24C45.5086 29.24 44.9326 29.128 44.4526 28.904C43.9886 28.68 43.6046 28.256 43.3006 27.632C42.8046 28.192 42.1806 28.6 41.4286 28.856C40.6926 29.112 39.9486 29.24 39.1966 29.24ZM41.3326 27.68C41.6686 27.68 42.0206 27.568 42.3886 27.344C42.7566 27.104 43.0366 26.8 43.2286 26.432V23.192C41.9486 23.592 41.0526 24.08 40.5406 24.656C40.0286 25.216 39.7726 25.784 39.7726 26.36C39.7726 26.776 39.9086 27.104 40.1806 27.344C40.4526 27.568 40.8366 27.68 41.3326 27.68Z" fill="#4F433F"/>
<path d="M64.7986 27.872C65.0386 27.872 65.3746 27.8 65.8066 27.656V28.376C65.4386 28.664 64.9826 28.88 64.4386 29.024C63.8946 29.168 63.3186 29.24 62.7106 29.24C61.9906 29.24 61.3426 29.096 60.7666 28.808C60.2066 28.504 59.9026 28.032 59.8546 27.392C59.4706 28 58.8946 28.464 58.1266 28.784C57.3746 29.088 56.5906 29.24 55.7746 29.24C54.2546 29.24 53.1106 28.944 52.3426 28.352C51.5746 27.744 51.1906 26.92 51.1906 25.88V20.648C51.1906 20.344 51.1106 20.136 50.9506 20.024C50.8066 19.896 50.6306 19.832 50.4226 19.832C50.3586 19.832 50.1906 19.864 49.9186 19.928L49.6786 19.064L54.5986 17.504H55.4866V25.544C55.4866 26.952 56.0946 27.656 57.3106 27.656C57.6626 27.656 58.0306 27.536 58.4146 27.296C58.8146 27.056 59.1506 26.664 59.4226 26.12C59.7106 25.56 59.8546 24.856 59.8546 24.008V20.648C59.8546 20.344 59.7746 20.136 59.6146 20.024C59.4706 19.896 59.2946 19.832 59.0866 19.832C59.0226 19.832 58.8546 19.864 58.5826 19.928L58.3426 19.064L63.2866 17.504H64.1506V27.008C64.1506 27.584 64.3666 27.872 64.7986 27.872Z" fill="#4F433F"/>
<path d="M76.5884 17.48C77.2124 17.48 77.7484 17.6 78.1964 17.84C78.6604 18.08 78.8924 18.48 78.8924 19.04C78.8924 19.568 78.7564 19.968 78.4844 20.24C78.2124 20.496 77.8524 20.624 77.4044 20.624C77.1484 20.624 76.9404 20.584 76.7804 20.504C76.6204 20.408 76.4524 20.28 76.2764 20.12C76.1324 19.976 75.9884 19.864 75.8444 19.784C75.7004 19.704 75.5244 19.664 75.3164 19.664C75.0444 19.664 74.7164 19.824 74.3324 20.144C73.9644 20.464 73.6284 20.92 73.3244 21.512C73.0204 22.104 72.8364 22.776 72.7724 23.528V27.008C72.7724 27.648 73.2044 27.968 74.0684 27.968H74.6684V29H66.4844V27.968H67.2044C68.0524 27.968 68.4764 27.656 68.4764 27.032V20.648C68.4764 20.376 68.4044 20.176 68.2604 20.048C68.1164 19.904 67.9244 19.832 67.6844 19.832C67.5084 19.832 67.3484 19.864 67.2044 19.928L66.9884 19.064L71.9324 17.504H72.7724V20.456C72.9644 19.768 73.2844 19.2 73.7324 18.752C74.1804 18.304 74.6604 17.984 75.1724 17.792C75.7004 17.584 76.1724 17.48 76.5884 17.48Z" fill="#4F433F"/>
<path d="M83.1185 29.24C82.0625 29.24 81.1825 29.024 80.4785 28.592C79.7905 28.144 79.4465 27.504 79.4465 26.672C79.4465 25.424 80.0865 24.44 81.3665 23.72C82.6465 22.984 84.5745 22.44 87.1505 22.088V21.2C87.1505 20.464 86.9425 19.92 86.5265 19.568C86.1105 19.2 85.5265 19.016 84.7745 19.016C84.3905 19.016 84.0385 19.072 83.7185 19.184C83.4145 19.28 83.1665 19.408 82.9745 19.568C82.7985 19.728 82.7105 19.872 82.7105 20C82.7105 20.08 82.7345 20.216 82.7825 20.408C82.8305 20.584 82.8545 20.72 82.8545 20.816C82.8545 21.12 82.7345 21.384 82.4945 21.608C82.2705 21.832 81.9265 21.944 81.4625 21.944C81.0625 21.944 80.7025 21.8 80.3825 21.512C80.0785 21.208 79.9265 20.8 79.9265 20.288C79.9265 19.408 80.4305 18.72 81.4385 18.224C82.4625 17.728 83.8785 17.48 85.6865 17.48C86.8225 17.48 87.8225 17.64 88.6865 17.96C89.5665 18.264 90.2465 18.696 90.7265 19.256C91.2065 19.8 91.4465 20.44 91.4465 21.176V27.008C91.4465 27.312 91.5025 27.528 91.6145 27.656C91.7265 27.784 91.8945 27.848 92.1185 27.848C92.3905 27.848 92.7185 27.784 93.1025 27.656V28.376C92.7505 28.648 92.3025 28.856 91.7585 29C91.2305 29.16 90.6785 29.24 90.1025 29.24C89.4305 29.24 88.8545 29.128 88.3745 28.904C87.9105 28.68 87.5265 28.256 87.2225 27.632C86.7265 28.192 86.1025 28.6 85.3505 28.856C84.6145 29.112 83.8705 29.24 83.1185 29.24ZM85.2545 27.68C85.5905 27.68 85.9425 27.568 86.3105 27.344C86.6785 27.104 86.9585 26.8 87.1505 26.432V23.192C85.8705 23.592 84.9745 24.08 84.4625 24.656C83.9505 25.216 83.6945 25.784 83.6945 26.36C83.6945 26.776 83.8305 27.104 84.1025 27.344C84.3745 27.568 84.7585 27.68 85.2545 27.68Z" fill="#4F433F"/>
<path d="M110.545 27.968V29H102.553V27.968H103.057C103.857 27.968 104.257 27.656 104.257 27.032V21.176C104.257 19.768 103.649 19.064 102.433 19.064C102.081 19.064 101.705 19.184 101.305 19.424C100.921 19.664 100.585 20.064 100.297 20.624C100.025 21.168 99.8885 21.864 99.8885 22.712V27.032C99.8885 27.656 100.297 27.968 101.113 27.968H101.593V29H93.6005V27.968H94.3205C95.1845 27.968 95.6165 27.656 95.6165 27.032V20.648C95.6165 20.104 95.3525 19.832 94.8245 19.832C94.7925 19.832 94.6245 19.864 94.3205 19.928L94.1045 19.064L99.0245 17.504H99.8885V19.328C100.273 18.736 100.841 18.28 101.593 17.96C102.361 17.64 103.153 17.48 103.969 17.48C105.489 17.48 106.633 17.784 107.401 18.392C108.169 19 108.553 19.816 108.553 20.84V27.032C108.553 27.656 108.985 27.968 109.849 27.968H110.545Z" fill="#4F433F"/>
<path d="M114.923 29.24C113.867 29.24 112.987 29.024 112.283 28.592C111.595 28.144 111.251 27.504 111.251 26.672C111.251 25.424 111.891 24.44 113.171 23.72C114.451 22.984 116.379 22.44 118.955 22.088V21.2C118.955 20.464 118.747 19.92 118.331 19.568C117.915 19.2 117.331 19.016 116.579 19.016C116.195 19.016 115.843 19.072 115.523 19.184C115.219 19.28 114.971 19.408 114.779 19.568C114.603 19.728 114.515 19.872 114.515 20C114.515 20.08 114.539 20.216 114.587 20.408C114.635 20.584 114.659 20.72 114.659 20.816C114.659 21.12 114.539 21.384 114.299 21.608C114.075 21.832 113.731 21.944 113.267 21.944C112.867 21.944 112.507 21.8 112.187 21.512C111.883 21.208 111.731 20.8 111.731 20.288C111.731 19.408 112.235 18.72 113.243 18.224C114.267 17.728 115.683 17.48 117.491 17.48C118.627 17.48 119.627 17.64 120.491 17.96C121.371 18.264 122.051 18.696 122.531 19.256C123.011 19.8 123.251 20.44 123.251 21.176V27.008C123.251 27.312 123.307 27.528 123.419 27.656C123.531 27.784 123.699 27.848 123.923 27.848C124.195 27.848 124.523 27.784 124.907 27.656V28.376C124.555 28.648 124.107 28.856 123.563 29C123.035 29.16 122.483 29.24 121.907 29.24C121.235 29.24 120.659 29.128 120.179 28.904C119.715 28.68 119.331 28.256 119.027 27.632C118.531 28.192 117.907 28.6 117.155 28.856C116.419 29.112 115.675 29.24 114.923 29.24ZM117.059 27.68C117.395 27.68 117.747 27.568 118.115 27.344C118.483 27.104 118.763 26.8 118.955 26.432V23.192C117.675 23.592 116.779 24.08 116.267 24.656C115.755 25.216 115.499 25.784 115.499 26.36C115.499 26.776 115.635 27.104 115.907 27.344C116.179 27.568 116.563 27.68 117.059 27.68Z" fill="#4F433F"/>
<path d="M131.469 29.2519C130.881 29.2519 130.349 29.1609 129.873 28.9789C129.397 28.7969 129.026 28.5099 128.76 28.1179C128.494 27.7259 128.361 27.2009 128.361 26.5429C128.361 26.3329 128.375 26.1229 128.403 25.9129C128.431 25.6889 128.466 25.4579 128.508 25.2199L129.789 17.9539H131.637L130.377 25.1359C130.363 25.3039 130.342 25.4649 130.314 25.6189C130.286 25.7729 130.272 25.9199 130.272 26.0599C130.272 26.4659 130.349 26.7879 130.503 27.0259C130.671 27.2499 130.895 27.4039 131.175 27.4879C131.469 27.5719 131.798 27.6139 132.162 27.6139C132.582 27.6139 132.988 27.5439 133.38 27.4039C133.772 27.2639 134.136 27.0539 134.472 26.7739C134.808 26.4799 135.102 26.1159 135.354 25.6819C135.606 25.2479 135.781 24.7439 135.879 24.1699L136.971 17.9539H138.84L136.887 28.9999H135.417L135.522 27.3409H135.396C135.046 27.7749 134.654 28.1389 134.22 28.4329C133.8 28.7129 133.359 28.9159 132.897 29.0419C132.435 29.1819 131.959 29.2519 131.469 29.2519Z" fill="#4F433F"/>
<path d="M144.437 29.2519C143.471 29.2519 142.659 29.1049 142.001 28.8109C141.343 28.5029 140.839 28.0479 140.489 27.4459C140.153 26.8299 139.985 26.0529 139.985 25.1149C139.985 24.8349 139.999 24.5479 140.027 24.2539C140.069 23.9459 140.118 23.6309 140.174 23.3089C140.398 22.0069 140.769 20.9499 141.287 20.1379C141.805 19.3119 142.463 18.7029 143.261 18.3109C144.073 17.9049 145.018 17.7019 146.096 17.7019C147.076 17.7019 147.895 17.8559 148.553 18.1639C149.211 18.4579 149.708 18.9129 150.044 19.5289C150.38 20.1449 150.548 20.9289 150.548 21.8809C150.548 22.1469 150.534 22.4269 150.506 22.7209C150.478 23.0149 150.436 23.3229 150.38 23.6449C150.156 24.9329 149.785 25.9899 149.267 26.8159C148.749 27.6419 148.091 28.2579 147.293 28.6639C146.495 29.0559 145.543 29.2519 144.437 29.2519ZM144.521 27.6979C145.221 27.6979 145.83 27.5579 146.348 27.2779C146.88 26.9979 147.314 26.5639 147.65 25.9759C148 25.3739 148.252 24.6179 148.406 23.7079C148.462 23.3859 148.504 23.1199 148.532 22.9099C148.56 22.6859 148.581 22.4969 148.595 22.3429C148.609 22.1749 148.616 22.0209 148.616 21.8809C148.616 21.2789 148.518 20.7889 148.322 20.4109C148.126 20.0189 147.832 19.7319 147.44 19.5499C147.062 19.3539 146.579 19.2559 145.991 19.2559C145.291 19.2559 144.682 19.4029 144.164 19.6969C143.646 19.9769 143.219 20.4109 142.883 20.9989C142.547 21.5729 142.295 22.3219 142.127 23.2459C142.071 23.5679 142.022 23.8409 141.98 24.0649C141.952 24.2889 141.931 24.4779 141.917 24.6319C141.903 24.7859 141.896 24.9329 141.896 25.0729C141.896 25.6889 141.994 26.1859 142.19 26.5639C142.386 26.9419 142.68 27.2289 143.072 27.4249C143.464 27.6069 143.947 27.6979 144.521 27.6979Z" fill="#4F433F"/>
<path d="M151.752 28.9999L154.419 13.8169H156.267L154.608 23.2669L160.173 17.9539H162.42L157.905 22.2799L160.677 28.9999H158.682L156.54 23.4769L154.209 25.5349L153.6 28.9999H151.752Z" fill="#4F433F"/>
<path d="M165.048 28.9999L162.948 17.9539H164.817L165.825 23.4769C165.867 23.7429 165.916 24.0789 165.972 24.4849C166.042 24.8909 166.105 25.3109 166.161 25.7449C166.217 26.1649 166.266 26.5429 166.308 26.8789H166.413C166.567 26.5569 166.735 26.1859 166.917 25.7659C167.113 25.3459 167.309 24.9329 167.505 24.5269C167.701 24.1069 167.876 23.7569 168.03 23.4769L170.928 17.9539H172.902L166.896 28.9999H165.048Z" fill="#4F433F"/>
<path d="M174.979 15.8749L175.336 13.8169H177.184L176.827 15.8749H174.979ZM172.711 28.9999L174.664 17.9539H176.512L174.559 28.9999H172.711Z" fill="#4F433F"/>
<path d="M177.448 28.9999L179.38 17.9539H180.829L180.724 19.7389H180.829C180.997 19.4309 181.207 19.1229 181.459 18.8149C181.711 18.4929 182.019 18.2269 182.383 18.0169C182.747 17.8069 183.181 17.7019 183.685 17.7019C183.909 17.7019 184.105 17.7229 184.273 17.7649C184.455 17.7929 184.588 17.8279 184.672 17.8699L184.378 19.5709H183.664C183.216 19.5709 182.803 19.6549 182.425 19.8229C182.047 19.9909 181.718 20.2219 181.438 20.5159C181.158 20.8099 180.927 21.1669 180.745 21.5869C180.563 22.0069 180.43 22.4689 180.346 22.9729L179.296 28.9999H177.448Z" fill="#4F433F"/>
<path d="M187.89 29.2519C187.162 29.2519 186.525 29.1049 185.979 28.8109C185.447 28.5169 185.034 28.0759 184.74 27.4879C184.446 26.8999 184.299 26.1509 184.299 25.2409C184.299 24.9609 184.313 24.6669 184.341 24.3589C184.383 24.0509 184.432 23.7219 184.488 23.3719C184.712 22.0559 185.062 20.9779 185.538 20.1379C186.014 19.2979 186.595 18.6819 187.281 18.2899C187.981 17.8979 188.765 17.7019 189.633 17.7019C190.123 17.7019 190.564 17.7649 190.956 17.8909C191.362 18.0029 191.719 18.1919 192.027 18.4579C192.335 18.7099 192.58 19.0319 192.762 19.4239H192.888L193.455 17.9539H194.967L194.505 20.5579C194.421 21.0339 194.323 21.5519 194.211 22.1119C194.113 22.6719 194.015 23.2319 193.917 23.7919C193.819 24.3379 193.728 24.8489 193.644 25.3249C193.574 25.7869 193.511 26.1859 193.455 26.5219C193.413 26.8439 193.392 27.0469 193.392 27.1309C193.392 27.3129 193.441 27.4529 193.539 27.5509C193.637 27.6349 193.777 27.6769 193.959 27.6769H194.799L194.589 28.8949C194.449 28.9649 194.26 29.0349 194.022 29.1049C193.798 29.1889 193.532 29.2309 193.224 29.2309C192.832 29.2309 192.517 29.1469 192.279 28.9789C192.041 28.7969 191.88 28.5379 191.796 28.2019C191.768 28.0899 191.747 27.9639 191.733 27.8239C191.719 27.6839 191.712 27.5439 191.712 27.4039L191.586 27.3619C191.124 28.0059 190.571 28.4819 189.927 28.7899C189.297 29.0979 188.618 29.2519 187.89 29.2519ZM188.562 27.6349C188.926 27.6349 189.29 27.5719 189.654 27.4459C190.018 27.3059 190.361 27.0819 190.683 26.7739C191.005 26.4659 191.292 26.0599 191.544 25.5559C191.796 25.0379 191.985 24.4009 192.111 23.6449C192.167 23.3649 192.202 23.1199 192.216 22.9099C192.244 22.6859 192.265 22.4899 192.279 22.3219C192.293 22.1539 192.3 22.0069 192.3 21.8809C192.3 21.3209 192.216 20.8519 192.048 20.4739C191.894 20.0819 191.642 19.7949 191.292 19.6129C190.956 19.4169 190.515 19.3189 189.969 19.3189C189.367 19.3189 188.835 19.4449 188.373 19.6969C187.911 19.9489 187.519 20.3689 187.197 20.9569C186.875 21.5309 186.623 22.3009 186.441 23.2669C186.385 23.5889 186.343 23.8689 186.315 24.1069C186.287 24.3309 186.266 24.5339 186.252 24.7159C186.238 24.8839 186.231 25.0449 186.231 25.1989C186.231 26.0389 186.42 26.6549 186.798 27.0469C187.19 27.4389 187.778 27.6349 188.562 27.6349Z" fill="#4F433F"/>
<path d="M198.906 28.9999L196.806 17.9539H198.675L199.683 23.4769C199.725 23.7429 199.774 24.0789 199.83 24.4849C199.9 24.8909 199.963 25.3109 200.019 25.7449C200.075 26.1649 200.124 26.5429 200.166 26.8789H200.271C200.425 26.5569 200.593 26.1859 200.775 25.7659C200.971 25.3459 201.167 24.9329 201.363 24.5269C201.559 24.1069 201.734 23.7569 201.888 23.4769L204.786 17.9539H206.76L200.754 28.9999H198.906Z" fill="#4F433F"/>
<path d="M210.039 29.2519C209.311 29.2519 208.674 29.1049 208.128 28.8109C207.596 28.5169 207.183 28.0759 206.889 27.4879C206.595 26.8999 206.448 26.1509 206.448 25.2409C206.448 24.9609 206.462 24.6669 206.49 24.3589C206.532 24.0509 206.581 23.7219 206.637 23.3719C206.861 22.0559 207.211 20.9779 207.687 20.1379C208.163 19.2979 208.744 18.6819 209.43 18.2899C210.13 17.8979 210.914 17.7019 211.782 17.7019C212.272 17.7019 212.713 17.7649 213.105 17.8909C213.511 18.0029 213.868 18.1919 214.176 18.4579C214.484 18.7099 214.729 19.0319 214.911 19.4239H215.037L215.604 17.9539H217.116L216.654 20.5579C216.57 21.0339 216.472 21.5519 216.36 22.1119C216.262 22.6719 216.164 23.2319 216.066 23.7919C215.968 24.3379 215.877 24.8489 215.793 25.3249C215.723 25.7869 215.66 26.1859 215.604 26.5219C215.562 26.8439 215.541 27.0469 215.541 27.1309C215.541 27.3129 215.59 27.4529 215.688 27.5509C215.786 27.6349 215.926 27.6769 216.108 27.6769H216.948L216.738 28.8949C216.598 28.9649 216.409 29.0349 216.171 29.1049C215.947 29.1889 215.681 29.2309 215.373 29.2309C214.981 29.2309 214.666 29.1469 214.428 28.9789C214.19 28.7969 214.029 28.5379 213.945 28.2019C213.917 28.0899 213.896 27.9639 213.882 27.8239C213.868 27.6839 213.861 27.5439 213.861 27.4039L213.735 27.3619C213.273 28.0059 212.72 28.4819 212.076 28.7899C211.446 29.0979 210.767 29.2519 210.039 29.2519ZM210.711 27.6349C211.075 27.6349 211.439 27.5719 211.803 27.4459C212.167 27.3059 212.51 27.0819 212.832 26.7739C213.154 26.4659 213.441 26.0599 213.693 25.5559C213.945 25.0379 214.134 24.4009 214.26 23.6449C214.316 23.3649 214.351 23.1199 214.365 22.9099C214.393 22.6859 214.414 22.4899 214.428 22.3219C214.442 22.1539 214.449 22.0069 214.449 21.8809C214.449 21.3209 214.365 20.8519 214.197 20.4739C214.043 20.0819 213.791 19.7949 213.441 19.6129C213.105 19.4169 212.664 19.3189 212.118 19.3189C211.516 19.3189 210.984 19.4449 210.522 19.6969C210.06 19.9489 209.668 20.3689 209.346 20.9569C209.024 21.5309 208.772 22.3009 208.59 23.2669C208.534 23.5889 208.492 23.8689 208.464 24.1069C208.436 24.3309 208.415 24.5339 208.401 24.7159C208.387 24.8839 208.38 25.0449 208.38 25.1989C208.38 26.0389 208.569 26.6549 208.947 27.0469C209.339 27.4389 209.927 27.6349 210.711 27.6349Z" fill="#4F433F"/>
<path d="M218.135 28.9999L220.067 17.9539H221.516L221.411 19.6129H221.558C221.922 19.1789 222.314 18.8219 222.734 18.5419C223.168 18.2479 223.616 18.0379 224.078 17.9119C224.54 17.7719 225.009 17.7019 225.485 17.7019C226.087 17.7019 226.619 17.7929 227.081 17.9749C227.543 18.1569 227.907 18.4439 228.173 18.8359C228.439 19.2279 228.572 19.7529 228.572 20.4109C228.572 20.6069 228.558 20.8169 228.53 21.0409C228.516 21.2649 228.488 21.4959 228.446 21.7339L227.165 28.9999H225.317L226.577 21.8389C226.605 21.6569 226.626 21.4889 226.64 21.3349C226.668 21.1669 226.682 21.0199 226.682 20.8939C226.682 20.4879 226.598 20.1729 226.43 19.9489C226.276 19.7249 226.059 19.5709 225.779 19.4869C225.499 19.3889 225.17 19.3399 224.792 19.3399C224.386 19.3399 223.98 19.4169 223.574 19.5709C223.182 19.7109 222.811 19.9279 222.461 20.2219C222.125 20.5159 221.831 20.8869 221.579 21.3349C221.327 21.7829 221.152 22.2939 221.054 22.8679L219.983 28.9999H218.135Z" fill="#4F433F"/>
<path d="M232.194 15.8749L232.572 13.8169H234.42L234.063 15.8749H232.194ZM228.918 32.8219C228.75 32.8219 228.568 32.8079 228.372 32.7799C228.176 32.7659 227.994 32.7379 227.826 32.6959C227.658 32.6679 227.518 32.6329 227.406 32.5909L227.616 31.2889H228.561C228.897 31.2889 229.163 31.2049 229.359 31.0369C229.541 30.8689 229.66 30.6239 229.716 30.3019L231.9 17.9539H233.748L231.564 30.3439C231.48 30.7639 231.347 31.1629 231.165 31.5409C230.983 31.9189 230.71 32.2269 230.346 32.4649C229.982 32.7029 229.506 32.8219 228.918 32.8219Z" fill="#4F433F"/>
<path d="M239.369 29.2519C238.375 29.2519 237.542 29.1049 236.87 28.8109C236.212 28.5029 235.715 28.0409 235.379 27.4249C235.057 26.7949 234.896 26.0249 234.896 25.1149C234.896 24.7369 234.917 24.3589 234.959 23.9809C235.001 23.5889 235.057 23.2179 235.127 22.8679C235.337 21.8739 235.666 20.9919 236.114 20.2219C236.562 19.4379 237.164 18.8219 237.92 18.3739C238.69 17.9259 239.642 17.7019 240.776 17.7019C241.728 17.7019 242.512 17.8629 243.128 18.1849C243.758 18.4929 244.22 18.9409 244.514 19.5289C244.822 20.1169 244.976 20.8379 244.976 21.6919C244.976 22.0139 244.948 22.3709 244.892 22.7629C244.85 23.1549 244.78 23.5469 244.682 23.9389H236.891C236.863 24.1489 236.835 24.3519 236.807 24.5479C236.793 24.7299 236.786 24.9049 236.786 25.0729C236.786 25.6889 236.877 26.1929 237.059 26.5849C237.255 26.9769 237.549 27.2639 237.941 27.4459C238.333 27.6279 238.816 27.7189 239.39 27.7189C239.754 27.7189 240.104 27.6769 240.44 27.5929C240.776 27.4949 241.084 27.3479 241.364 27.1519C241.644 26.9559 241.889 26.7039 242.099 26.3959C242.309 26.0739 242.47 25.6889 242.582 25.2409H244.388C244.248 25.9129 244.024 26.5009 243.716 27.0049C243.408 27.5089 243.037 27.9289 242.603 28.2649C242.169 28.5869 241.672 28.8319 241.112 28.9999C240.566 29.1679 239.985 29.2519 239.369 29.2519ZM237.143 22.5529H243.023C243.065 22.3569 243.093 22.1749 243.107 22.0069C243.121 21.8389 243.128 21.6779 243.128 21.5239C243.128 21.0059 243.037 20.5789 242.855 20.2429C242.687 19.9069 242.428 19.6549 242.078 19.4869C241.728 19.3049 241.287 19.2139 240.755 19.2139C240.139 19.2139 239.593 19.3469 239.117 19.6129C238.641 19.8649 238.235 20.2359 237.899 20.7259C237.577 21.2159 237.325 21.8249 237.143 22.5529Z" fill="#4F433F"/>
<path d="M254.591 29.2519C253.905 29.2519 253.296 29.1889 252.764 29.0629C252.232 28.9369 251.784 28.7549 251.42 28.5169C251.056 28.2789 250.776 27.9919 250.58 27.6559C250.398 27.3059 250.307 26.9209 250.307 26.5009C250.307 26.3329 250.321 26.1719 250.349 26.0179C250.377 25.8499 250.412 25.7029 250.454 25.5769H252.281C252.253 25.6889 252.225 25.8009 252.197 25.9129C252.183 26.0249 252.176 26.1229 252.176 26.2069C252.176 26.5709 252.281 26.8719 252.491 27.1099C252.701 27.3339 252.995 27.4949 253.373 27.5929C253.751 27.6909 254.192 27.7399 254.696 27.7399C255.088 27.7399 255.452 27.7049 255.788 27.6349C256.124 27.5509 256.418 27.4319 256.67 27.2779C256.936 27.1239 257.139 26.9279 257.279 26.6899C257.433 26.4379 257.51 26.1439 257.51 25.8079C257.51 25.5279 257.426 25.2969 257.258 25.1149C257.104 24.9189 256.88 24.7579 256.586 24.6319C256.306 24.4919 255.991 24.3729 255.641 24.2749C255.291 24.1629 254.927 24.0509 254.549 23.9389C254.185 23.8269 253.821 23.7009 253.457 23.5609C253.107 23.4209 252.785 23.2529 252.491 23.0569C252.211 22.8609 251.987 22.6159 251.819 22.3219C251.651 22.0139 251.567 21.6359 251.567 21.1879C251.567 20.5999 251.686 20.0889 251.924 19.6549C252.162 19.2209 252.491 18.8569 252.911 18.5629C253.331 18.2689 253.814 18.0519 254.36 17.9119C254.906 17.7719 255.494 17.7019 256.124 17.7019C256.684 17.7019 257.202 17.7579 257.678 17.8699C258.168 17.9679 258.588 18.1289 258.938 18.3529C259.302 18.5629 259.582 18.8289 259.778 19.1509C259.988 19.4729 260.093 19.8439 260.093 20.2639C260.093 20.4459 260.072 20.6209 260.03 20.7889C260.002 20.9429 259.981 21.0549 259.967 21.1249H258.161C258.175 21.0269 258.182 20.9429 258.182 20.8729C258.196 20.7889 258.203 20.7119 258.203 20.6419C258.203 20.2919 258.112 20.0119 257.93 19.8019C257.748 19.5919 257.496 19.4449 257.174 19.3609C256.852 19.2629 256.481 19.2139 256.061 19.2139C255.697 19.2139 255.354 19.2489 255.032 19.3189C254.724 19.3749 254.451 19.4729 254.213 19.6129C253.989 19.7389 253.807 19.9139 253.667 20.1379C253.541 20.3479 253.478 20.5859 253.478 20.8519C253.478 21.1879 253.597 21.4539 253.835 21.6499C254.073 21.8319 254.381 21.9789 254.759 22.0909C255.137 22.2029 255.543 22.3359 255.977 22.4899C256.397 22.6299 256.81 22.7699 257.216 22.9099C257.622 23.0499 257.993 23.2249 258.329 23.4349C258.679 23.6309 258.959 23.8969 259.169 24.2329C259.379 24.5549 259.484 24.9609 259.484 25.4509C259.484 26.0949 259.358 26.6549 259.106 27.1309C258.868 27.6069 258.532 28.0059 258.098 28.3279C257.664 28.6359 257.146 28.8669 256.544 29.0209C255.956 29.1749 255.305 29.2519 254.591 29.2519Z" fill="#4F433F"/>
<path d="M261.243 28.9999L263.91 13.8169H265.758L263.091 28.9999H261.243Z" fill="#4F433F"/>
<path d="M268.228 15.8749L268.585 13.8169H270.433L270.076 15.8749H268.228ZM265.96 28.9999L267.913 17.9539H269.761L267.808 28.9999H265.96Z" fill="#4F433F"/>
<path d="M270.697 28.9999L273.364 13.8169H275.212L273.553 23.2669L279.118 17.9539H281.365L276.85 22.2799L279.622 28.9999H277.627L275.485 23.4769L273.154 25.5349L272.545 28.9999H270.697Z" fill="#4F433F"/>
<path d="M284.667 29.2519C283.939 29.2519 283.302 29.1049 282.756 28.8109C282.224 28.5169 281.811 28.0759 281.517 27.4879C281.223 26.8999 281.076 26.1509 281.076 25.2409C281.076 24.9609 281.09 24.6669 281.118 24.3589C281.16 24.0509 281.209 23.7219 281.265 23.3719C281.489 22.0559 281.839 20.9779 282.315 20.1379C282.791 19.2979 283.372 18.6819 284.058 18.2899C284.758 17.8979 285.542 17.7019 286.41 17.7019C286.9 17.7019 287.341 17.7649 287.733 17.8909C288.139 18.0029 288.496 18.1919 288.804 18.4579C289.112 18.7099 289.357 19.0319 289.539 19.4239H289.665L290.232 17.9539H291.744L291.282 20.5579C291.198 21.0339 291.1 21.5519 290.988 22.1119C290.89 22.6719 290.792 23.2319 290.694 23.7919C290.596 24.3379 290.505 24.8489 290.421 25.3249C290.351 25.7869 290.288 26.1859 290.232 26.5219C290.19 26.8439 290.169 27.0469 290.169 27.1309C290.169 27.3129 290.218 27.4529 290.316 27.5509C290.414 27.6349 290.554 27.6769 290.736 27.6769H291.576L291.366 28.8949C291.226 28.9649 291.037 29.0349 290.799 29.1049C290.575 29.1889 290.309 29.2309 290.001 29.2309C289.609 29.2309 289.294 29.1469 289.056 28.9789C288.818 28.7969 288.657 28.5379 288.573 28.2019C288.545 28.0899 288.524 27.9639 288.51 27.8239C288.496 27.6839 288.489 27.5439 288.489 27.4039L288.363 27.3619C287.901 28.0059 287.348 28.4819 286.704 28.7899C286.074 29.0979 285.395 29.2519 284.667 29.2519ZM285.339 27.6349C285.703 27.6349 286.067 27.5719 286.431 27.4459C286.795 27.3059 287.138 27.0819 287.46 26.7739C287.782 26.4659 288.069 26.0599 288.321 25.5559C288.573 25.0379 288.762 24.4009 288.888 23.6449C288.944 23.3649 288.979 23.1199 288.993 22.9099C289.021 22.6859 289.042 22.4899 289.056 22.3219C289.07 22.1539 289.077 22.0069 289.077 21.8809C289.077 21.3209 288.993 20.8519 288.825 20.4739C288.671 20.0819 288.419 19.7949 288.069 19.6129C287.733 19.4169 287.292 19.3189 286.746 19.3189C286.144 19.3189 285.612 19.4449 285.15 19.6969C284.688 19.9489 284.296 20.3689 283.974 20.9569C283.652 21.5309 283.4 22.3009 283.218 23.2669C283.162 23.5889 283.12 23.8689 283.092 24.1069C283.064 24.3309 283.043 24.5339 283.029 24.7159C283.015 24.8839 283.008 25.0449 283.008 25.1989C283.008 26.0389 283.197 26.6549 283.575 27.0469C283.967 27.4389 284.555 27.6349 285.339 27.6349Z" fill="#4F433F"/>
<path d="M120 1H311.5V42" stroke="#E8E5CA" stroke-width="2"/>
<path d="M117.5 44.0001L1 44L1 2" stroke="#E8E5CA" stroke-width="2"/>
</svg>
